<svg xmlns="http://www.w3.org/2000/svg" viewBox="0 0 500 500" width="100%" height="100%">
  <defs>
    <linearGradient id="tealGrad" x1="0%" y1="100%" x2="100%" y2="0%">
      <stop offset="0%" stop-color="#196b66" />
      <stop offset="50%" stop-color="#2a9d8f" />
      <stop offset="100%" stop-color="#4db6ac" />
    </linearGradient>
  </defs>

  <g id="outer-c">
    <path d="M 380,380 C 310,450 190,440 140,370 C 90,300 100,180 170,130 C 230,85 320,95 370,150 C 385,165 370,185 350,175 C 310,135 240,130 195,165 C 140,210 135,310 190,365 C 235,410 320,410 365,365 C 375,355 390,370 380,380 Z" fill="url(#tealGrad)" />
    <path d="M 180,120 C 240,80 330,100 375,155 C 340,140 280,145 240,180 C 230,190 215,175 225,165 C 255,135 305,125 350,135 C 300,110 230,105 180,120 Z" fill="#2a9d8f" opacity="0.8" />
  </g>

  <g id="inner-trend" fill="#0f2537">
    <circle cx="210" cy="275" r="22" />
    <circle cx="280" cy="225" r="22" />
    <circle cx="345" cy="285" r="22" />
    
    <path d="M 210,275 L 280,225" stroke="#0f2537" stroke-width="14" stroke-linecap="round" />
    <path d="M 280,225 L 345,285" stroke="#0f2537" stroke-width="14" stroke-linecap="round" />
    
    <path d="M 345,285 L 420,230" stroke="#0f2537" stroke-width="16" stroke-linecap="round" />
    <polygon points="425,215 425,265 385,225" />
  </g>
</svg>
